<svg viewBox="0 0 200 200" xmlns="http://www.w3.org/2000/svg" class="art">
<circle cx="100" cy="104" r="86" fill="#D6CBC5"/>
<circle cx="100" cy="104" r="86" fill="none" stroke="#A69083" stroke-width="1.5" stroke-dasharray="2 6" stroke-linecap="round"/>
<path d="M25.6,21.3 Q25.6,27.8 32.1,27.8 Q25.6,27.8 25.6,34.4 Q25.6,27.8 19.1,27.8 Q25.6,27.8 25.6,21.3Z" fill="#3B2416" opacity="0.8"/><path d="M46.1,27.6 Q46.1,32.6 51.1,32.6 Q46.1,32.6 46.1,37.6 Q46.1,32.6 41.1,32.6 Q46.1,32.6 46.1,27.6Z" fill="#3B2416" opacity="0.8"/><path d="M46.3,28.9 Q46.3,35.0 52.4,35.0 Q46.3,35.0 46.3,41.2 Q46.3,35.0 40.1,35.0 Q46.3,35.0 46.3,28.9Z" fill="#3B2416" opacity="0.8"/><path d="M24.4,32.1 Q24.4,36.9 29.2,36.9 Q24.4,36.9 24.4,41.7 Q24.4,36.9 19.5,36.9 Q24.4,36.9 24.4,32.1Z" fill="#3B2416" opacity="0.8"/>
<path d="M174.0,66.3 Q174.0,71.8 179.5,71.8 Q174.0,71.8 174.0,77.4 Q174.0,71.8 168.4,71.8 Q174.0,71.8 174.0,66.3Z" fill="#78665C" opacity="0.8"/><path d="M180.2,27.5 Q180.2,33.5 186.2,33.5 Q180.2,33.5 180.2,39.5 Q180.2,33.5 174.1,33.5 Q180.2,33.5 180.2,27.5Z" fill="#78665C" opacity="0.8"/>
<path d="M60.0,82.0 A40.0,38.0 0 0 1 140.0,82.0 Q133.3,99.1 126.7,82.0 Q120.0,100.3 113.3,82.0 Q106.7,100.3 100.0,82.0 Q93.3,97.0 86.7,82.0 Q80.0,96.1 73.3,82.0 Q66.7,98.5 60.0,82.0 Z" fill="#6B4630" stroke="#583927" stroke-width="1.6" stroke-linejoin="round"/>
<path d="M83.1,88.0 q0,16.8 3.6,16.8 q3.6,0 3.6,-16.8z" fill="#6B4630"/>
<path d="M75.2,74.0 A28.0,28.0 0 0 1 98.0,50.8" fill="none" stroke="#AE998D" stroke-width="4.8" stroke-linecap="round" opacity="0.85"/>
<circle cx="111.2" cy="57.2" r="2.8" fill="#AE998D" opacity="0.9"/>
<path d="M56,92 L144,92 L138,176 L62,176 Z" fill="#FFFFFF" stroke="#78665C" stroke-width="2" stroke-linejoin="round"/>
<rect x="52" y="88" width="96" height="10" rx="4" fill="#9F8778" stroke="#78665C" stroke-width="1.6"/>
<rect x="64" y="118" width="72" height="30" rx="5" fill="#3E2416"/>
<text x="100" y="138" text-anchor="middle" font-family="DM Sans, sans-serif" font-weight="800" font-size="13" letter-spacing="1.5" fill="#FFFFFF">PROTEIN</text>
<path d="M66,160 L134,160" stroke="#78665C" stroke-width="1.2" stroke-dasharray="3 3"/>
</svg>