<svg viewBox="0 0 200 200" xmlns="http://www.w3.org/2000/svg" class="art">
<circle cx="100" cy="104" r="86" fill="#F0F5E4"/>
<circle cx="100" cy="104" r="86" fill="none" stroke="#DFEBC6" stroke-width="1.5" stroke-dasharray="2 6" stroke-linecap="round"/>
<path d="M58.6,40.3 Q58.6,47.2 65.6,47.2 Q58.6,47.2 58.6,54.2 Q58.6,47.2 51.7,47.2 Q58.6,47.2 58.6,40.3Z" fill="#D6336C" opacity="0.8"/><path d="M24.1,41.9 Q24.1,48.7 30.9,48.7 Q24.1,48.7 24.1,55.4 Q24.1,48.7 17.4,48.7 Q24.1,48.7 24.1,41.9Z" fill="#D6336C" opacity="0.8"/><path d="M66.0,20.0 Q66.0,27.0 73.0,27.0 Q66.0,27.0 66.0,34.0 Q66.0,27.0 59.0,27.0 Q66.0,27.0 66.0,20.0Z" fill="#D6336C" opacity="0.8"/><path d="M34.7,22.6 Q34.7,27.1 39.1,27.1 Q34.7,27.1 34.7,31.5 Q34.7,27.1 30.3,27.1 Q34.7,27.1 34.7,22.6Z" fill="#D6336C" opacity="0.8"/>
<path d="M181.3,66.3 Q181.3,73.2 188.3,73.2 Q181.3,73.2 181.3,80.1 Q181.3,73.2 174.4,73.2 Q181.3,73.2 181.3,66.3Z" fill="#799159" opacity="0.8"/><path d="M177.6,62.4 Q177.6,68.2 183.4,68.2 Q177.6,68.2 177.6,74.1 Q177.6,68.2 171.7,68.2 Q177.6,68.2 177.6,62.4Z" fill="#799159" opacity="0.8"/>
<path d="M67.0,112 L133.0,112 L100,184 Z" fill="#E2A764" stroke="#B9772F" stroke-width="1.6" stroke-linejoin="round"/>
<clipPath id="cone100112"><path d="M67.0,112 L133.0,112 L100,184 Z"/></clipPath>
<g clip-path="url(#cone100112)" opacity="0.7"><line x1="1.0" y1="112" x2="44.199999999999996" y2="184" stroke="#B9772F" stroke-width="1.1"/><line x1="67.0" y1="112" x2="23.800000000000004" y2="184" stroke="#B9772F" stroke-width="1.1"/><line x1="12.0" y1="112" x2="55.199999999999996" y2="184" stroke="#B9772F" stroke-width="1.1"/><line x1="78.0" y1="112" x2="34.800000000000004" y2="184" stroke="#B9772F" stroke-width="1.1"/><line x1="23.0" y1="112" x2="66.19999999999999" y2="184" stroke="#B9772F" stroke-width="1.1"/><line x1="89.0" y1="112" x2="45.800000000000004" y2="184" stroke="#B9772F" stroke-width="1.1"/><line x1="34.0" y1="112" x2="77.19999999999999" y2="184" stroke="#B9772F" stroke-width="1.1"/><line x1="100.0" y1="112" x2="56.800000000000004" y2="184" stroke="#B9772F" stroke-width="1.1"/><line x1="45.0" y1="112" x2="88.19999999999999" y2="184" stroke="#B9772F" stroke-width="1.1"/><line x1="111.0" y1="112" x2="67.80000000000001" y2="184" stroke="#B9772F" stroke-width="1.1"/><line x1="56.0" y1="112" x2="99.19999999999999" y2="184" stroke="#B9772F" stroke-width="1.1"/><line x1="122.0" y1="112" x2="78.80000000000001" y2="184" stroke="#B9772F" stroke-width="1.1"/><line x1="67.0" y1="112" x2="110.19999999999999" y2="184" stroke="#B9772F" stroke-width="1.1"/><line x1="133.0" y1="112" x2="89.80000000000001" y2="184" stroke="#B9772F" stroke-width="1.1"/><line x1="78.0" y1="112" x2="121.19999999999999" y2="184" stroke="#B9772F" stroke-width="1.1"/><line x1="144.0" y1="112" x2="100.80000000000001" y2="184" stroke="#B9772F" stroke-width="1.1"/><line x1="89.0" y1="112" x2="132.2" y2="184" stroke="#B9772F" stroke-width="1.1"/><line x1="155.0" y1="112" x2="111.80000000000001" y2="184" stroke="#B9772F" stroke-width="1.1"/><line x1="100.0" y1="112" x2="143.2" y2="184" stroke="#B9772F" stroke-width="1.1"/><line x1="166.0" y1="112" x2="122.80000000000001" y2="184" stroke="#B9772F" stroke-width="1.1"/><line x1="111.0" y1="112" x2="154.2" y2="184" stroke="#B9772F" stroke-width="1.1"/><line x1="177.0" y1="112" x2="133.8" y2="184" stroke="#B9772F" stroke-width="1.1"/><line x1="122.0" y1="112" x2="165.2" y2="184" stroke="#B9772F" stroke-width="1.1"/><line x1="188.0" y1="112" x2="144.8" y2="184" stroke="#B9772F" stroke-width="1.1"/><line x1="133.0" y1="112" x2="176.2" y2="184" stroke="#B9772F" stroke-width="1.1"/><line x1="199.0" y1="112" x2="155.8" y2="184" stroke="#B9772F" stroke-width="1.1"/><line x1="144.0" y1="112" x2="187.2" y2="184" stroke="#B9772F" stroke-width="1.1"/><line x1="210.0" y1="112" x2="166.8" y2="184" stroke="#B9772F" stroke-width="1.1"/></g>
<path d="M64.0,106.0 A36.0,34.2 0 0 1 136.0,106.0 Q130.0,122.8 124.0,106.0 Q118.0,123.5 112.0,106.0 Q106.0,119.7 100.0,106.0 Q94.0,124.4 88.0,106.0 Q82.0,119.8 76.0,106.0 Q70.0,122.5 64.0,106.0 Z" fill="#C9DDA0" stroke="#A5B583" stroke-width="1.6" stroke-linejoin="round"/>
<path d="M86.8,111.4 q0,15.1 3.2,15.1 q3.2,0 3.2,-15.1z" fill="#C9DDA0"/>
<path d="M77.7,98.8 A25.2,25.2 0 0 1 98.2,77.9" fill="none" stroke="#E1ECCB" stroke-width="4.3" stroke-linecap="round" opacity="0.85"/>
<circle cx="110.1" cy="83.7" r="2.5" fill="#E1ECCB" opacity="0.9"/>
<circle cx="107.5" cy="98.9" r="2.0" fill="#D6336C"/>
<rect x="111.0" y="87.9" width="5.0" height="1.8" rx="0.9" fill="#D6336C" transform="rotate(156 113.5 88.8)"/>
<circle cx="110.8" cy="104.8" r="2.0" fill="#D6336C"/>
<rect x="119.6" y="99.0" width="5.0" height="1.8" rx="0.9" fill="#D6336C" transform="rotate(55 122.1 99.9)"/>
<circle cx="109.9" cy="104.1" r="2.0" fill="#D6336C"/>
<rect x="107.0" y="99.8" width="5.0" height="1.8" rx="0.9" fill="#D6336C" transform="rotate(55 109.5 100.7)"/>
<circle cx="101.8" cy="92.4" r="2.0" fill="#D6336C"/>
<circle cx="113.7" cy="101.5" r="2.0" fill="#D6336C"/>
<circle cx="90.1" cy="103.4" r="2.0" fill="#D6336C"/>
<path d="M69.0,70.0 A31.0,29.4 0 0 1 131.0,70.0 Q125.8,84.1 120.7,70.0 Q115.5,84.4 110.3,70.0 Q105.2,85.7 100.0,70.0 Q94.8,81.9 89.7,70.0 Q84.5,81.2 79.3,70.0 Q74.2,85.0 69.0,70.0 Z" fill="#CDE0A8" stroke="#A8B88A" stroke-width="1.6" stroke-linejoin="round"/>
<path d="M108.1,74.7 q0,13.0 2.8,13.0 q2.8,0 2.8,-13.0z" fill="#CDE0A8"/>
<path d="M80.8,63.8 A21.7,21.7 0 0 1 98.5,45.8" fill="none" stroke="#E4EECF" stroke-width="3.7" stroke-linecap="round" opacity="0.85"/>
<circle cx="108.7" cy="50.8" r="2.2" fill="#E4EECF" opacity="0.9"/>
<rect x="90.7" y="51.4" width="4.3" height="1.6" rx="0.8" fill="#D6336C" transform="rotate(164 92.8 52.1)"/>
<circle cx="99.8" cy="63.0" r="1.7" fill="#D6336C"/>
<circle cx="101.7" cy="63.1" r="1.7" fill="#D6336C"/>
<circle cx="113.5" cy="57.1" r="1.7" fill="#D6336C"/>
<circle cx="107.7" cy="69.5" r="1.7" fill="#D6336C"/>
<circle cx="104.4" cy="60.9" r="1.7" fill="#D6336C"/>
<circle cx="92.2" cy="55.3" r="1.7" fill="#D6336C"/>
<rect x="98.4" y="61.8" width="4.3" height="1.6" rx="0.8" fill="#D6336C" transform="rotate(54 100.6 62.6)"/>
<circle cx="114.5" cy="53.8" r="1.7" fill="#D6336C"/>
<circle cx="104" cy="36" r="7" fill="#C62828"/><path d="M104,30 q4,-10 12,-12" stroke="#5B8C32" stroke-width="2" fill="none"/>
</svg>