<svg viewBox="0 0 200 200" xmlns="http://www.w3.org/2000/svg" class="art">
<circle cx="100" cy="104" r="86" fill="#F0E4D5"/>
<circle cx="100" cy="104" r="86" fill="none" stroke="#DFC6A6" stroke-width="1.5" stroke-dasharray="2 6" stroke-linecap="round"/>
<path d="M55.7,19.5 Q55.7,25.1 61.3,25.1 Q55.7,25.1 55.7,30.7 Q55.7,25.1 50.1,25.1 Q55.7,25.1 55.7,19.5Z" fill="#8B5A2B" opacity="0.8"/><path d="M31.7,55.0 Q31.7,61.9 38.5,61.9 Q31.7,61.9 31.7,68.8 Q31.7,61.9 24.8,61.9 Q31.7,61.9 31.7,55.0Z" fill="#8B5A2B" opacity="0.8"/><path d="M50.6,34.5 Q50.6,40.6 56.7,40.6 Q50.6,40.6 50.6,46.7 Q50.6,40.6 44.5,40.6 Q50.6,40.6 50.6,34.5Z" fill="#8B5A2B" opacity="0.8"/><path d="M25.6,64.0 Q25.6,68.6 30.2,68.6 Q25.6,68.6 25.6,73.2 Q25.6,68.6 21.0,68.6 Q25.6,68.6 25.6,64.0Z" fill="#8B5A2B" opacity="0.8"/>
<path d="M173.9,53.5 Q173.9,58.0 178.5,58.0 Q173.9,58.0 173.9,62.6 Q173.9,58.0 169.4,58.0 Q173.9,58.0 173.9,53.5Z" fill="#8C715A" opacity="0.8"/><path d="M181.2,45.8 Q181.2,51.3 186.6,51.3 Q181.2,51.3 181.2,56.7 Q181.2,51.3 175.8,51.3 Q181.2,51.3 181.2,45.8Z" fill="#8C715A" opacity="0.8"/>
<path d="M56.0,100.0 A44.0,41.8 0 0 1 144.0,100.0 Q136.7,118.7 129.3,100.0 Q122.0,121.7 114.7,100.0 Q107.3,115.7 100.0,100.0 Q92.7,117.5 85.3,100.0 Q78.0,122.3 70.7,100.0 Q63.3,120.2 56.0,100.0 Z" fill="#C9A06A" stroke="#A58357" stroke-width="1.6" stroke-linejoin="round"/>
<path d="M83.3,106.6 q0,18.5 4.0,18.5 q4.0,0 4.0,-18.5z" fill="#C9A06A"/>
<path d="M72.7,91.2 A30.8,30.8 0 0 1 97.8,65.7" fill="none" stroke="#E1CBAD" stroke-width="5.3" stroke-linecap="round" opacity="0.85"/>
<circle cx="112.3" cy="72.7" r="3.1" fill="#E1CBAD" opacity="0.9"/>
<path d="M50,106 L150,106 L138,172 L62,172 Z" fill="#FFFFFF" stroke="#947B66" stroke-width="2" stroke-linejoin="round"/>
<path d="M58,124 L142,124" stroke="#D4B388" stroke-width="7"/>
<path d="M60,140 L140,140" stroke="#8B5A2B" stroke-width="3" opacity="0.6"/>
<g transform="rotate(28 130 70)"><rect x="126" y="30" width="7" height="50" rx="3" fill="#F2C94C" stroke="#C99A1E" stroke-width="1.2"/><rect x="121" y="22" width="17" height="16" rx="5" fill="#F2C94C" stroke="#C99A1E" stroke-width="1.2"/></g>
</svg>