<svg viewBox="0 0 200 200" xmlns="http://www.w3.org/2000/svg" class="art">
<circle cx="100" cy="104" r="86" fill="#D1C8C3"/>
<circle cx="100" cy="104" r="86" fill="none" stroke="#9D897E" stroke-width="1.5" stroke-dasharray="2 6" stroke-linecap="round"/>
<path d="M61.5,49.3 Q61.5,55.7 67.9,55.7 Q61.5,55.7 61.5,62.1 Q61.5,55.7 55.1,55.7 Q61.5,55.7 61.5,49.3Z" fill="#F3EEE4" opacity="0.8"/><path d="M55.3,48.3 Q55.3,54.4 61.4,54.4 Q55.3,54.4 55.3,60.4 Q55.3,54.4 49.2,54.4 Q55.3,54.4 55.3,48.3Z" fill="#F3EEE4" opacity="0.8"/><path d="M34.9,56.0 Q34.9,62.1 41.0,62.1 Q34.9,62.1 34.9,68.2 Q34.9,62.1 28.8,62.1 Q34.9,62.1 34.9,56.0Z" fill="#F3EEE4" opacity="0.8"/><path d="M43.6,16.7 Q43.6,22.5 49.4,22.5 Q43.6,22.5 43.6,28.3 Q43.6,22.5 37.8,22.5 Q43.6,22.5 43.6,16.7Z" fill="#F3EEE4" opacity="0.8"/>
<path d="M144.8,55.8 Q144.8,62.6 151.7,62.6 Q144.8,62.6 144.8,69.4 Q144.8,62.6 138.0,62.6 Q144.8,62.6 144.8,55.8Z" fill="#78665D" opacity="0.8"/><path d="M165.9,72.7 Q165.9,78.7 171.9,78.7 Q165.9,78.7 165.9,84.8 Q165.9,78.7 159.8,78.7 Q165.9,78.7 165.9,72.7Z" fill="#78665D" opacity="0.8"/>
<path d="M67.0,112 L133.0,112 L100,184 Z" fill="#E2A764" stroke="#B9772F" stroke-width="1.6" stroke-linejoin="round"/>
<clipPath id="cone100112"><path d="M67.0,112 L133.0,112 L100,184 Z"/></clipPath>
<g clip-path="url(#cone100112)" opacity="0.7"><line x1="1.0" y1="112" x2="44.199999999999996" y2="184" stroke="#B9772F" stroke-width="1.1"/><line x1="67.0" y1="112" x2="23.800000000000004" y2="184" stroke="#B9772F" stroke-width="1.1"/><line x1="12.0" y1="112" x2="55.199999999999996" y2="184" stroke="#B9772F" stroke-width="1.1"/><line x1="78.0" y1="112" x2="34.800000000000004" y2="184" stroke="#B9772F" stroke-width="1.1"/><line x1="23.0" y1="112" x2="66.19999999999999" y2="184" stroke="#B9772F" stroke-width="1.1"/><line x1="89.0" y1="112" x2="45.800000000000004" y2="184" stroke="#B9772F" stroke-width="1.1"/><line x1="34.0" y1="112" x2="77.19999999999999" y2="184" stroke="#B9772F" stroke-width="1.1"/><line x1="100.0" y1="112" x2="56.800000000000004" y2="184" stroke="#B9772F" stroke-width="1.1"/><line x1="45.0" y1="112" x2="88.19999999999999" y2="184" stroke="#B9772F" stroke-width="1.1"/><line x1="111.0" y1="112" x2="67.80000000000001" y2="184" stroke="#B9772F" stroke-width="1.1"/><line x1="56.0" y1="112" x2="99.19999999999999" y2="184" stroke="#B9772F" stroke-width="1.1"/><line x1="122.0" y1="112" x2="78.80000000000001" y2="184" stroke="#B9772F" stroke-width="1.1"/><line x1="67.0" y1="112" x2="110.19999999999999" y2="184" stroke="#B9772F" stroke-width="1.1"/><line x1="133.0" y1="112" x2="89.80000000000001" y2="184" stroke="#B9772F" stroke-width="1.1"/><line x1="78.0" y1="112" x2="121.19999999999999" y2="184" stroke="#B9772F" stroke-width="1.1"/><line x1="144.0" y1="112" x2="100.80000000000001" y2="184" stroke="#B9772F" stroke-width="1.1"/><line x1="89.0" y1="112" x2="132.2" y2="184" stroke="#B9772F" stroke-width="1.1"/><line x1="155.0" y1="112" x2="111.80000000000001" y2="184" stroke="#B9772F" stroke-width="1.1"/><line x1="100.0" y1="112" x2="143.2" y2="184" stroke="#B9772F" stroke-width="1.1"/><line x1="166.0" y1="112" x2="122.80000000000001" y2="184" stroke="#B9772F" stroke-width="1.1"/><line x1="111.0" y1="112" x2="154.2" y2="184" stroke="#B9772F" stroke-width="1.1"/><line x1="177.0" y1="112" x2="133.8" y2="184" stroke="#B9772F" stroke-width="1.1"/><line x1="122.0" y1="112" x2="165.2" y2="184" stroke="#B9772F" stroke-width="1.1"/><line x1="188.0" y1="112" x2="144.8" y2="184" stroke="#B9772F" stroke-width="1.1"/><line x1="133.0" y1="112" x2="176.2" y2="184" stroke="#B9772F" stroke-width="1.1"/><line x1="199.0" y1="112" x2="155.8" y2="184" stroke="#B9772F" stroke-width="1.1"/><line x1="144.0" y1="112" x2="187.2" y2="184" stroke="#B9772F" stroke-width="1.1"/><line x1="210.0" y1="112" x2="166.8" y2="184" stroke="#B9772F" stroke-width="1.1"/></g>
<path d="M64.0,106.0 A36.0,34.2 0 0 1 136.0,106.0 Q130.0,121.8 124.0,106.0 Q118.0,123.0 112.0,106.0 Q106.0,123.0 100.0,106.0 Q94.0,123.7 88.0,106.0 Q82.0,120.3 76.0,106.0 Q70.0,124.2 64.0,106.0 Z" fill="#5B3A28" stroke="#4B3021" stroke-width="1.6" stroke-linejoin="round"/>
<path d="M111.9,111.4 q0,15.1 3.2,15.1 q3.2,0 3.2,-15.1z" fill="#5B3A28"/>
<path d="M77.7,98.8 A25.2,25.2 0 0 1 98.2,77.9" fill="none" stroke="#A59389" stroke-width="4.3" stroke-linecap="round" opacity="0.85"/>
<circle cx="110.1" cy="83.7" r="2.5" fill="#A59389" opacity="0.9"/>
<circle cx="114.5" cy="89.7" r="2.0" fill="#F3EEE4"/>
<circle cx="90.9" cy="95.0" r="2.0" fill="#F3EEE4"/>
<rect x="102.8" y="84.8" width="5.0" height="1.8" rx="0.9" fill="#F3EEE4" transform="rotate(172 105.3 85.7)"/>
<rect x="75.1" y="100.8" width="5.0" height="1.8" rx="0.9" fill="#F3EEE4" transform="rotate(5 77.6 101.7)"/>
<rect x="101.9" y="98.4" width="5.0" height="1.8" rx="0.9" fill="#F3EEE4" transform="rotate(58 104.5 99.3)"/>
<rect x="87.8" y="99.7" width="5.0" height="1.8" rx="0.9" fill="#F3EEE4" transform="rotate(152 90.4 100.6)"/>
<rect x="86.6" y="101.7" width="5.0" height="1.8" rx="0.9" fill="#F3EEE4" transform="rotate(164 89.1 102.6)"/>
<circle cx="103.1" cy="84.0" r="2.0" fill="#F3EEE4"/>
<rect x="97.3" y="90.9" width="5.0" height="1.8" rx="0.9" fill="#F3EEE4" transform="rotate(48 99.8 91.8)"/>
<path d="M69.0,70.0 A31.0,29.4 0 0 1 131.0,70.0 Q125.8,84.1 120.7,70.0 Q115.5,83.0 110.3,70.0 Q105.2,84.5 100.0,70.0 Q94.8,81.2 89.7,70.0 Q84.5,84.4 79.3,70.0 Q74.2,82.8 69.0,70.0 Z" fill="#684A39" stroke="#553D2F" stroke-width="1.6" stroke-linejoin="round"/>
<path d="M83.8,74.7 q0,13.0 2.8,13.0 q2.8,0 2.8,-13.0z" fill="#684A39"/>
<path d="M80.8,63.8 A21.7,21.7 0 0 1 98.5,45.8" fill="none" stroke="#AC9B92" stroke-width="3.7" stroke-linecap="round" opacity="0.85"/>
<circle cx="108.7" cy="50.8" r="2.2" fill="#AC9B92" opacity="0.9"/>
<rect x="87.4" y="62.4" width="4.3" height="1.6" rx="0.8" fill="#F3EEE4" transform="rotate(59 89.6 63.2)"/>
<circle cx="108.9" cy="59.1" r="1.7" fill="#F3EEE4"/>
<circle cx="102.5" cy="60.8" r="1.7" fill="#F3EEE4"/>
<circle cx="100.8" cy="61.9" r="1.7" fill="#F3EEE4"/>
<circle cx="86.4" cy="67.8" r="1.7" fill="#F3EEE4"/>
<circle cx="111.4" cy="51.4" r="1.7" fill="#F3EEE4"/>
<rect x="82.8" y="66.1" width="4.3" height="1.6" rx="0.8" fill="#F3EEE4" transform="rotate(135 84.9 66.9)"/>
<circle cx="108.0" cy="67.1" r="1.7" fill="#F3EEE4"/>
<rect x="92.2" y="62.0" width="4.3" height="1.6" rx="0.8" fill="#F3EEE4" transform="rotate(75 94.4 62.7)"/>
<circle cx="104" cy="36" r="7" fill="#C62828"/><path d="M104,30 q4,-10 12,-12" stroke="#5B8C32" stroke-width="2" fill="none"/>
</svg>